<svg width="33" height="33" viewBox="0 0 33 33" fill="none" xmlns="http://www.w3.org/2000/svg">
<path fill-rule="evenodd" clip-rule="evenodd" d="M13.1257 21.5958C13.1097 24.0776 11.0876 26.0781 8.6057 26.0672C6.12382 26.0564 4.11923 24.0383 4.12501 21.5564C4.13079 19.0745 6.14476 17.0658 8.62666 17.0665C9.21056 17.0659 9.78891 17.1799 10.3289 17.402L12.3763 13.75H20.6263L22.3327 17.5587C22.9651 17.2335 23.6661 17.0642 24.3773 17.0651C26.661 17.0621 28.5858 18.7681 28.8572 21.0356C29.1285 23.3031 27.6606 25.4151 25.4407 25.951C23.2207 26.487 20.9509 25.2774 20.1578 23.1358C19.3647 20.9943 20.2991 18.598 22.3327 17.5587L20.6263 13.75L16.5013 20.625H13.0225C13.0914 20.944 13.126 21.2694 13.1257 21.5958Z" stroke="black" stroke-width="1.2" stroke-linecap="round" stroke-linejoin="round"/>
<path d="M20.0692 13.9728C20.1922 14.2805 20.5414 14.4302 20.8491 14.3071C21.1568 14.184 21.3064 13.8348 21.1833 13.5272L20.0692 13.9728ZM17.8763 6.875L18.4333 6.65217C18.3422 6.42437 18.1216 6.275 17.8763 6.275V6.875ZM15.1263 6.275C14.7949 6.275 14.5263 6.54363 14.5263 6.875C14.5263 7.20637 14.7949 7.475 15.1263 7.475V6.275ZM15.9899 20.9389C16.1633 21.2213 16.5328 21.3097 16.8152 21.1363C17.0976 20.9629 17.186 20.5935 17.0126 20.3111L15.9899 20.9389ZM14.4195 17.2342L13.9018 17.5378L13.9082 17.5482L14.4195 17.2342ZM12.3763 13.75L11.8428 14.0247C11.8479 14.0345 11.8531 14.0441 11.8587 14.0535L12.3763 13.75ZM10.2519 9.625L10.7853 9.35029C10.6824 9.15054 10.4766 9.025 10.2519 9.025V9.625ZM6.87625 9.025C6.54488 9.025 6.27625 9.29363 6.27625 9.625C6.27625 9.95637 6.54488 10.225 6.87625 10.225V9.025ZM22.8743 17.3006C22.7317 17.0015 22.3736 16.8746 22.0745 17.0171C21.7754 17.1597 21.6484 17.5177 21.791 17.8169L22.8743 17.3006ZM23.2719 20.9244C23.4144 21.2235 23.7725 21.3504 24.0716 21.2079C24.3708 21.0653 24.4977 20.7073 24.3551 20.4081L23.2719 20.9244ZM10.8332 17.7271C11.0127 17.4486 10.9325 17.0772 10.654 16.8977C10.3754 16.7182 10.0041 16.7984 9.82457 17.0769L10.8332 17.7271ZM8.25125 20.625L7.74695 20.2999C7.62796 20.4845 7.61933 20.7194 7.72444 20.9122C7.82956 21.105 8.03163 21.225 8.25125 21.225V20.625ZM13.0225 21.225C13.3539 21.225 13.6225 20.9564 13.6225 20.625C13.6225 20.2936 13.3539 20.025 13.0225 20.025V21.225ZM21.1833 13.5272L18.4333 6.65217L17.3192 7.09783L20.0692 13.9728L21.1833 13.5272ZM17.8763 6.275H15.1263V7.475H17.8763V6.275ZM17.0126 20.3111L14.9308 16.9203L13.9082 17.5482L15.9899 20.9389L17.0126 20.3111ZM14.9371 16.9307L12.8938 13.4465L11.8587 14.0535L13.9019 17.5378L14.9371 16.9307ZM12.9097 13.4753L10.7853 9.35029L9.71846 9.89971L11.8428 14.0247L12.9097 13.4753ZM10.2519 9.025H6.87625V10.225H10.2519V9.025ZM21.791 17.8169L23.2719 20.9244L24.3551 20.4081L22.8743 17.3006L21.791 17.8169ZM9.82457 17.0769L7.74695 20.2999L8.75555 20.9501L10.8332 17.7271L9.82457 17.0769ZM8.25125 21.225H13.0225V20.025H8.25125V21.225Z" fill="black"/>
</svg>
