<svg width="26" height="26" viewBox="0 0 26 26" fill="none" xmlns="http://www.w3.org/2000/svg">
<path fill-rule="evenodd" clip-rule="evenodd" d="M21.6667 11.9167V14.0833C21.6667 14.6816 21.1816 15.1667 20.5833 15.1667H18.4167C18.4167 16.9616 16.9616 18.4167 15.1667 18.4167H7.58334C5.78841 18.4167 4.33334 16.9616 4.33334 15.1667V10.8333C4.33334 9.0384 5.78841 7.58333 7.58334 7.58333H15.1667C16.9616 7.58333 18.4167 9.0384 18.4167 10.8333H20.5833C21.1816 10.8333 21.6667 11.3184 21.6667 11.9167Z" stroke="#FFE55C" stroke-width="1.4" stroke-linecap="round" stroke-linejoin="round"/>
<path d="M19.1167 10.8333C19.1167 10.4467 18.8033 10.1333 18.4167 10.1333C18.0301 10.1333 17.7167 10.4467 17.7167 10.8333H19.1167ZM17.7167 15.1667C17.7167 15.5533 18.0301 15.8667 18.4167 15.8667C18.8033 15.8667 19.1167 15.5533 19.1167 15.1667H17.7167ZM12.1369 10.0851C12.322 9.74573 12.1969 9.32053 11.8575 9.13544C11.5181 8.95035 11.0929 9.07545 10.9078 9.41486L12.1369 10.0851ZM9.75 13L9.13544 12.6649C9.01716 12.8818 9.02197 13.1449 9.14809 13.3574C9.2742 13.5698 9.50296 13.7 9.75 13.7V13ZM13 13L13.6146 13.3351C13.7328 13.1182 13.728 12.8551 13.6019 12.6426C13.4758 12.4302 13.247 12.3 13 12.3V13ZM10.6131 15.9149C10.428 16.2543 10.5531 16.6795 10.8925 16.8646C11.2319 17.0497 11.6571 16.9246 11.8422 16.5851L10.6131 15.9149ZM17.7167 10.8333V15.1667H19.1167V10.8333H17.7167ZM10.9078 9.41486L9.13544 12.6649L10.3646 13.3351L12.1369 10.0851L10.9078 9.41486ZM9.75 13.7H13V12.3H9.75V13.7ZM12.3854 12.6649L10.6131 15.9149L11.8422 16.5851L13.6146 13.3351L12.3854 12.6649Z" fill="#FFE55C"/>
</svg>
