<svg width="34" height="34" viewBox="0 0 34 34" fill="none" xmlns="http://www.w3.org/2000/svg">
<path d="M7.80001 12.75C7.80001 13.1366 8.11341 13.45 8.50001 13.45C8.8866 13.45 9.20001 13.1366 9.20001 12.75H7.80001ZM8.50001 8.5V7.8C8.11341 7.8 7.80001 8.1134 7.80001 8.5H8.50001ZM12.75 9.2C13.1366 9.2 13.45 8.8866 13.45 8.5C13.45 8.1134 13.1366 7.8 12.75 7.8V9.2ZM24.8 12.75C24.8 13.1366 25.1134 13.45 25.5 13.45C25.8866 13.45 26.2 13.1366 26.2 12.75H24.8ZM25.5 8.5H26.2C26.2 8.1134 25.8866 7.8 25.5 7.8V8.5ZM21.25 7.8C20.8634 7.8 20.55 8.1134 20.55 8.5C20.55 8.8866 20.8634 9.2 21.25 9.2V7.8ZM26.2 21.25C26.2 20.8634 25.8866 20.55 25.5 20.55C25.1134 20.55 24.8 20.8634 24.8 21.25H26.2ZM25.5 25.5V26.2C25.8866 26.2 26.2 25.8866 26.2 25.5H25.5ZM21.25 24.8C20.8634 24.8 20.55 25.1134 20.55 25.5C20.55 25.8866 20.8634 26.2 21.25 26.2V24.8ZM9.20001 21.25C9.20001 20.8634 8.8866 20.55 8.50001 20.55C8.11341 20.55 7.80001 20.8634 7.80001 21.25H9.20001ZM8.50001 25.5H7.80001C7.80001 25.8866 8.11341 26.2 8.50001 26.2V25.5ZM12.75 26.2C13.1366 26.2 13.45 25.8866 13.45 25.5C13.45 25.1134 13.1366 24.8 12.75 24.8V26.2ZM28.3333 17.7C28.7199 17.7 29.0333 17.3866 29.0333 17C29.0333 16.6134 28.7199 16.3 28.3333 16.3V17.7ZM5.66667 16.3C5.28007 16.3 4.96667 16.6134 4.96667 17C4.96667 17.3866 5.28007 17.7 5.66667 17.7V16.3ZM9.20001 12.75V8.5H7.80001V12.75H9.20001ZM8.50001 9.2H12.75V7.8H8.50001V9.2ZM26.2 12.75V8.5H24.8V12.75H26.2ZM25.5 7.8H21.25V9.2H25.5V7.8ZM24.8 21.25V25.5H26.2V21.25H24.8ZM25.5 24.8H21.25V26.2H25.5V24.8ZM7.80001 21.25V25.5H9.20001V21.25H7.80001ZM8.50001 26.2H12.75V24.8H8.50001V26.2ZM28.3333 16.3H5.66667V17.7H28.3333V16.3Z" fill="black"/>
</svg>
