<svg width="30" height="30" viewBox="0 0 30 30" fill="none" xmlns="http://www.w3.org/2000/svg">
<path fill-rule="evenodd" clip-rule="evenodd" d="M18.15 2.70001C17.7358 2.70001 17.4 3.0358 17.4 3.45001C17.4 3.86423 17.7358 4.20001 18.15 4.20001L20.4 4.20001L22.6873 16.2899L19.9506 21.3088H7.0821C6.52786 20.8812 5.83419 20.6259 5.08163 20.6259C3.2721 20.6259 1.79999 22.098 1.79999 23.9075C1.79999 25.7171 3.2721 27.1892 5.08163 27.1892C6.07065 27.1892 6.95815 26.7488 7.56029 26.0545H17.3435C18.4415 26.0545 19.4517 25.4547 19.9774 24.4907L23.1411 18.6887L23.55 20.85L23.5652 20.847L23.5776 20.9135C22.4348 21.4273 21.6367 22.5756 21.6367 23.9075C21.6367 25.7171 23.1089 27.1892 24.9183 27.1892C26.7278 27.1892 28.2 25.7171 28.2 23.9075C28.2 22.1585 26.8245 20.7249 25.0985 20.631L25.0017 20.287L22.05 4.20001L22.65 4.20001C23.0642 4.20001 23.4 3.86423 23.4 3.45001C23.4 3.0358 23.0642 2.70001 22.65 2.70001H18.15ZM5.08163 25.6423C4.12504 25.6423 3.34686 24.8641 3.34686 23.9075C3.34686 22.951 4.12504 22.1727 5.08163 22.1727C6.03822 22.1727 6.8164 22.951 6.8164 23.9075C6.81635 24.8641 6.03817 25.6423 5.08163 25.6423ZM8.30728 24.5077C8.34342 24.313 8.36322 24.1126 8.36322 23.9075C8.36322 23.5396 8.30145 23.1861 8.1893 22.8557H19.107L18.7747 23.4651C18.4242 24.1078 17.7507 24.5077 17.0188 24.5077H8.30728ZM24.9183 25.6423C23.9618 25.6423 23.1836 24.8641 23.1836 23.9075C23.1836 22.951 23.9618 22.1727 24.9183 22.1727C25.8749 22.1727 26.6531 22.951 26.6531 23.9075C26.6531 24.8641 25.8749 25.6423 24.9183 25.6423Z" fill="black"/>
</svg>
