<svg width="34" height="34" viewBox="0 0 34 34" fill="none" xmlns="http://www.w3.org/2000/svg">
<path fill-rule="evenodd" clip-rule="evenodd" d="M21.2505 11.3333C21.2505 13.6806 19.3477 15.5833 17.0005 15.5833C14.6533 15.5833 12.7505 13.6806 12.7505 11.3333C12.7505 8.98613 14.6533 7.08334 17.0005 7.08334C18.1277 7.08334 19.2087 7.53111 20.0057 8.32814C20.8028 9.12517 21.2505 10.2062 21.2505 11.3333Z" stroke="black" stroke-width="1.4" stroke-linecap="round" stroke-linejoin="round"/>
<path fill-rule="evenodd" clip-rule="evenodd" d="M20.6371 18.4167H13.3639C12.9067 18.4173 12.4527 18.4944 12.0209 18.6448C7.04842 20.3604 11.7787 26.9167 17.0005 26.9167C22.2223 26.9167 26.9526 20.3604 21.9787 18.6448C21.5473 18.4945 21.0939 18.4174 20.6371 18.4167Z" stroke="black" stroke-width="1.4" stroke-linecap="round" stroke-linejoin="round"/>
</svg>
