<svg width="61" height="67" viewBox="0 0 61 67" fill="none" xmlns="http://www.w3.org/2000/svg">
<g filter="url(#filter0_d_1_209)">
<path d="M15.2835 15.3109C23.6722 6.90705 37.2852 6.89471 45.6891 15.2834V15.2834C54.093 23.672 54.1053 37.2851 45.7167 45.6889L30.5277 60.9055L15.3111 45.7165C6.90722 37.3279 6.89488 23.7148 15.2835 15.3109V15.3109Z" fill="#527676"/>
<path fill-rule="evenodd" clip-rule="evenodd" d="M32.915 21.07C32.5974 21.07 32.34 21.3274 32.34 21.645C32.34 21.9626 32.5974 22.22 32.915 22.22L34.64 22.22L36.3936 31.4889L34.2954 35.3367H24.4296C24.0047 35.0089 23.4729 34.8132 22.8959 34.8132C21.5086 34.8132 20.38 35.9418 20.38 37.3291C20.38 38.7164 21.5086 39.8451 22.8959 39.8451C23.6542 39.8451 24.3346 39.5074 24.7962 38.9751H31.8811C32.9791 38.9751 33.9893 38.3753 34.515 37.4113L36.7415 33.328L37.055 34.985L37.0667 34.9827L37.0761 35.0337C36.2001 35.4276 35.5881 36.308 35.5881 37.3291C35.5881 38.7164 36.7168 39.8451 38.1041 39.8451C39.4913 39.8451 40.62 38.7164 40.62 37.3291C40.62 35.9882 39.5654 34.8891 38.2422 34.8171L38.168 34.5534L35.905 22.22L36.365 22.22C36.6826 22.22 36.94 21.9626 36.94 21.645C36.94 21.3274 36.6826 21.07 36.365 21.07H32.915ZM22.8959 38.6591C22.1625 38.6591 21.5659 38.0625 21.5659 37.3291C21.5659 36.5958 22.1625 35.9991 22.8959 35.9991C23.6293 35.9991 24.2259 36.5958 24.2259 37.3291C24.2259 38.0625 23.6293 38.6591 22.8959 38.6591ZM25.3689 37.7892C25.3966 37.6399 25.4118 37.4863 25.4118 37.3291C25.4118 37.047 25.3645 36.776 25.2785 36.5227H33.6487L33.5266 36.7467C33.1761 37.3893 32.5026 37.7892 31.7707 37.7892H25.3689ZM38.1041 38.6591C37.3707 38.6591 36.7741 38.0625 36.7741 37.3291C36.7741 36.5958 37.3707 35.9991 38.1041 35.9991C38.8374 35.9991 39.4341 36.5958 39.4341 37.3291C39.4341 38.0625 38.8374 38.6591 38.1041 38.6591Z" fill="white"/>
</g>
<defs>
<filter id="filter0_d_1_209" x="-1.90548" y="-1.90564" width="68.8112" height="68.8112" filterUnits="userSpaceOnUse" color-interpolation-filters="sRGB">
<feFlood flood-opacity="0" result="BackgroundImageFix"/>
<feColorMatrix in="SourceAlpha" type="matrix" values="0 0 0 0 0 0 0 0 0 0 0 0 0 0 0 0 0 0 127 0" result="hardAlpha"/>
<feOffset dx="2" dy="2"/>
<feGaussianBlur stdDeviation="2"/>
<feComposite in2="hardAlpha" operator="out"/>
<feColorMatrix type="matrix" values="0 0 0 0 0 0 0 0 0 0 0 0 0 0 0 0 0 0 0.2 0"/>
<feBlend mode="normal" in2="BackgroundImageFix" result="effect1_dropShadow_1_209"/>
<feBlend mode="normal" in="SourceGraphic" in2="effect1_dropShadow_1_209" result="shape"/>
</filter>
</defs>
</svg>
